<svg width="40" height="40" viewBox="0 0 40 40" fill="none" xmlns="http://www.w3.org/2000/svg">
<path d="M31.9472 28.6833C30.5022 27.2383 24.751 26.0991 24.047 25.6177C23.3431 25.1362 23.7232 24.3303 23.7232 23.0524C25.7979 21.867 27.5403 19.0883 27.355 14.6799C29.2072 10.7161 27.4203 9.27124 27.4203 9.27124C27.4203 9.27124 29.5248 7.38192 29.5248 5.72679C25.2049 6.64085 19.7591 -0.327521 15.2396 5.8962C11.3868 5.11825 11.0903 10.9381 12.5723 15.0131C12.5723 21.7554 16.3509 23.3114 16.3509 23.3114C16.3509 23.3114 16.6797 24.9738 16.1809 25.3118C14.3767 26.5344 12.3871 26.1454 9.60867 27.3863C5.89683 29.0443 6.0891 35.2405 6.0891 35.2405C6.0891 35.2405 6.29273 35.8077 6.78525 35.8077H33.2887C33.871 35.8077 34.1331 35.2405 34.1331 35.2405C34.1331 31.4618 33.3922 30.1283 31.9472 28.6833H31.9472ZM22.6049 19.3495C22.3288 19.9314 21.412 20.8852 20.0441 20.8852C18.6879 20.8852 18.1369 19.9483 17.7668 19.3655C17.5999 19.1026 17.964 18.9112 17.964 18.9112C17.964 18.9112 18.9169 18.7709 20.0756 18.7709C21.2341 18.7709 22.2877 18.9112 22.2877 18.9112C22.2877 18.9112 22.7261 19.0948 22.6049 19.3495Z" fill="#0ead98"/>
<circle cx="31" cy="30" r="7" fill="#BDDBD9" stroke="white" stroke-width="2"/>
</svg>