<svg width="40" height="40" viewBox="0 0 40 40" fill="none" xmlns="http://www.w3.org/2000/svg">
<path d="M20.4908 31.2195C20.4908 29.8638 21.5893 28.7652 22.945 28.7652H24.9318C26.3576 28.0173 26.4511 26.0071 26.4044 24.9786C24.8617 23.7866 23.9267 21.94 23.9267 19.9766C23.9267 16.4939 26.755 13.876 30.2611 13.876C30.4481 13.876 30.6584 13.876 30.8454 13.8994V6.46651C30.8454 5.22769 29.8403 4.22261 28.6015 4.22261H8.57007C7.33125 4.22261 6.32617 5.22769 6.32617 6.46651V33.8374C6.32617 35.0762 7.33125 36.0813 8.57007 36.0813H20.4908V31.2195ZM11.4217 9.57524H23.4359C24.0202 9.57524 24.4877 10.0427 24.4877 10.6271C24.4877 11.2114 24.0202 11.6789 23.4359 11.6789H11.4217C10.8373 11.6789 10.3699 11.2114 10.3699 10.6271C10.3699 10.0427 10.8373 9.57524 11.4217 9.57524ZM16.4938 22.501H11.4217C10.8373 22.501 10.3699 22.0335 10.3699 21.4258C10.3699 20.8415 10.8373 20.374 11.4217 20.3506H16.4938C17.0782 20.3506 17.5457 20.8181 17.5457 21.4258C17.5457 22.0102 17.0782 22.501 16.4938 22.501ZM19.2286 17.0783H11.4217C10.8373 17.0783 10.3699 16.6108 10.3699 16.0264C10.3699 15.4421 10.8373 14.9746 11.4217 14.9746H19.2286C19.8129 14.9746 20.2804 15.4421 20.2804 16.0264C20.2804 16.6108 19.8129 17.0783 19.2286 17.0783Z" fill="#0ead98"/>
<path d="M23.9118 36.013C23.6626 36.013 23.4814 35.8091 23.4814 35.5826V31.4831C23.4814 31.234 23.6853 31.0528 23.9118 31.0528H25.8823L26.0408 30.9849C29.5061 29.5806 29.0984 25.2093 28.9852 24.3486L28.9173 23.8957L28.5322 23.6692C27.3998 22.9897 26.6976 21.7666 26.6976 20.4756C26.6976 18.4146 28.3737 16.7612 30.4121 16.7612H30.6839C32.292 16.8744 33.6736 18.0522 34.036 19.6376C34.3757 21.1551 33.7642 22.7179 32.4958 23.5786L32.1334 23.8051L32.0881 24.2354C31.9296 25.4811 31.6578 29.6259 35.0099 30.9849L35.1911 31.0528H36.9577C37.2069 31.0528 37.388 31.2566 37.388 31.4831V35.5373C37.388 35.9677 37.2295 36.013 37.0257 36.013H23.9118Z" fill="#BDDBD9"/>
</svg>